<svg width="20" height="19" viewBox="0 0 20 19" fill="none" xmlns="http://www.w3.org/2000/svg">
<path fill-rule="evenodd" clip-rule="evenodd" d="M19 19H15.0904V12.35C15.0904 10.5231 14.3962 9.5 12.9712 9.5C11.5462 9.5 10.5962 10.5596 10.5962 12.35V19H6.83269V6.32115H10.5962V8.03846C10.5962 8.03846 11.7288 5.95577 14.4327 5.95577C17.1365 5.95577 19.0365 7.6 19.0365 10.9981V19H19ZM2.30192 4.67692C1.02308 4.67692 0 3.61731 0 2.33846C0 1.05962 1.02308 0 2.30192 0C3.58077 0 4.60385 1.05962 4.60385 2.33846C4.60385 3.61731 3.58077 4.67692 2.30192 4.67692ZM0.365385 19H4.275V6.32115H0.365385V19Z" fill="#0F1941"/>
</svg>
