<svg width="95" height="24" viewBox="0 0 95 24" fill="none" xmlns="http://www.w3.org/2000/svg">
<g clip-path="url(#clip0_124_161)">
<path d="M44.1258 3.51653C42.843 2.80612 41.3108 2.45091 39.5173 2.45091H33.2933V20.3888H39.3985C41.2277 20.3888 42.7836 20.0335 44.0902 19.3113C45.3849 18.589 46.3826 17.559 47.0834 16.221C47.7723 14.8831 48.1167 13.2728 48.1167 11.4139C48.1167 9.55501 47.7723 7.95659 47.0834 6.60681C46.3945 5.25703 45.3967 4.23878 44.114 3.52837L44.1258 3.51653ZM44.2684 14.8357C43.8408 15.7474 43.2112 16.4341 42.3679 16.8841C41.5246 17.334 40.4794 17.559 39.2322 17.559H36.5478V5.26887H39.3153C40.5388 5.26887 41.5602 5.49383 42.3917 5.94376C43.2231 6.39369 43.8408 7.08041 44.2684 7.98027C44.6841 8.89196 44.8979 10.0286 44.8979 11.4021C44.8979 12.7755 44.6841 13.9122 44.2684 14.8357Z" fill="white"/>
<path d="M60.9565 12.669H68.784V9.98125H60.9565V5.17415H69.4135V2.45091H57.702V20.3888H69.461V17.6655H60.9565V12.669Z" fill="white"/>
<path d="M91.1616 2.45091L86.4937 16.5525H86.2918L81.6238 2.45091H78.0367L84.3913 20.3888H88.3941L94.7368 2.45091H91.1616Z" fill="white"/>
<path d="M17.1752 17.0735C17.1752 17.6182 17.0564 18.0207 16.8189 18.2812C16.5813 18.5417 16.2369 18.6601 15.7618 18.6601H12.7804C12.1866 18.6601 11.6877 18.743 11.2957 18.8969C10.8919 19.0627 10.5593 19.2995 10.298 19.6073C10.1198 19.8204 9.96542 20.0572 9.82289 20.3177C9.68036 20.0572 9.52595 19.8204 9.35966 19.6073C9.09835 19.2995 8.76577 19.0508 8.36193 18.8969C7.96996 18.743 7.4711 18.6601 6.87721 18.6601H3.88402C3.40891 18.6601 3.06446 18.5417 2.8269 18.2812C2.58935 18.0207 2.47057 17.6182 2.47057 17.0735V15.1791H0V17.3932C0 18.6009 0.296943 19.5718 0.902708 20.2822C1.50847 21.0044 2.38743 21.3715 3.50393 21.3715H6.9366C7.3642 21.3715 7.70865 21.4425 7.96996 21.5964C8.21939 21.7385 8.39756 21.928 8.51634 22.1648C8.63511 22.4016 8.6945 22.6739 8.6945 22.9699V24.0118H10.975V22.9699C10.975 22.6857 11.0344 22.4134 11.1532 22.1648C11.272 21.928 11.4501 21.7504 11.6996 21.5964C11.949 21.4544 12.3053 21.3715 12.7329 21.3715H16.1537C16.8901 21.3715 17.5315 21.2057 18.0542 20.886C18.5768 20.5545 18.9925 20.0927 19.2538 19.4889C19.5151 18.9087 19.6458 18.1983 19.6458 17.405V15.1436H17.1871V17.0853L17.1752 17.0735Z" fill="white"/>
<path d="M2.54182 2.45091H17.1039V8.51307H19.5626V0H0.0831299V8.51307H2.54182V2.45091Z" fill="white"/>
</g>
<defs>
<clipPath id="clip0_124_161">
<rect width="94.7368" height="24" fill="white"/>
</clipPath>
</defs>
</svg>
